<svg width="8" height="16" viewBox="0 0 8 16" fill="none" xmlns="http://www.w3.org/2000/svg">
<path d="M4.69278 3.80232C4.69278 3.96607 4.69278 4.49979 4.69278 5.25804H7.29978L7.01712 7.582H4.69278C4.69278 11.166 4.69278 15.9687 4.69278 15.9687H1.60759C1.60759 15.9687 1.60759 11.2296 1.60759 7.582H0V5.25804H1.60759C1.60759 4.33641 1.60759 3.68107 1.60759 3.4986C1.60759 2.62922 1.54209 2.21672 1.9115 1.54304C2.28109 0.86938 3.32359 -0.0210577 5.12669 0.000379838C6.93022 0.0225986 7.69044 0.196099 7.69044 0.196099L7.29978 2.67288C7.29978 2.67288 6.14812 2.36879 5.58284 2.47716C5.01831 2.58557 4.69278 2.93332 4.69278 3.80232Z" fill="white"/>
</svg>
