<svg width="16" height="16" viewBox="0 0 16 16" fill="none" xmlns="http://www.w3.org/2000/svg">
<path d="M7.66667 14.3333C6.23717 14.3333 5.20848 14.3326 4.40646 14.2548C3.61364 14.178 3.10646 14.0303 2.70172 13.776C2.23912 13.4853 1.84795 13.0942 1.55727 12.6316C1.30303 12.2269 1.15525 11.7197 1.07848 10.9269C1.00071 10.1248 1 9.09616 1 7.66667C1 6.23717 1.00071 5.20848 1.07848 4.40646C1.15525 3.61364 1.30303 3.10646 1.55727 2.70172C1.84794 2.23911 2.23911 1.84794 2.70172 1.55727C3.10646 1.30303 3.61364 1.15525 4.40646 1.07848C5.20838 1.00071 6.23707 1 7.66667 1C9.09616 1 10.1248 1.00071 10.9269 1.07848C11.7197 1.15525 12.2269 1.30303 12.6316 1.55727C13.0942 1.84795 13.4853 2.23912 13.776 2.70172C14.0303 3.10646 14.178 3.61364 14.2548 4.40646C14.3326 5.20848 14.3333 6.23717 14.3333 7.66667C14.3333 9.09616 14.3326 10.1248 14.2548 10.9269C14.178 11.7197 14.0303 12.2269 13.776 12.6316C13.4853 13.0942 13.0942 13.4853 12.6316 13.776C12.2269 14.0303 11.7197 14.178 10.9269 14.2548C10.1248 14.3326 9.09616 14.3333 7.66667 14.3333Z" fill="white" stroke="white" stroke-width="2"/>
</svg>
