<svg width="14" height="15" viewBox="0 0 14 15" fill="none" xmlns="http://www.w3.org/2000/svg">
<path d="M10.4615 2.8248C9.80214 2.05824 9.4567 1.06784 9.48422 0.05952L7.02038 0C7.02038 0 7.02038 0.10512 7.02038 0.24688V10.127C7.05478 13.2528 2.11622 13.177 2.50694 9.72192C2.74582 8.34816 4.22198 7.50272 5.53366 7.98064V5.46672C2.67798 4.96944 -0.0282572 7.2424 0.000222814 10.1381C0.249823 16.4181 9.25718 16.4189 9.5071 10.1381C9.44422 9.91328 9.47942 5.72832 9.47046 5.37536C10.5908 6.07248 11.8943 6.42096 13.2145 6.37632V3.78C11.994 3.78 11.0626 3.45552 10.4615 2.8248Z" fill="white"/>
</svg>
